PathFileType	4	(X/Y/Z)	TVC_9_BWA1_walk_RCNL2025.trc
DataRate	CameraRate	NumFrames	NumMarkers	Units	OrigDataRate	OrigDataStartFrame	OrigNumFrames
100	100	6	27	mm	100	50	397
Frame#	Time	R_Shoulder			L_Shoulder			C7			J_Notch			R_Elbow			L_Elbow			R_Wrist			L_Wrist			R_Asis			L_Asis			R_Psis			L_Psis			Sacral			Thoracic			Sternum			R_Thigh_Lateral			R_Knee_Lateral			R_Shank_Lateral			R_Ankle_Lateral			R_Heel			R_Toe			L_Thigh_Lateral			L_Knee_Lateral			L_Shank_Lateral			L_Ankle_Lateral			L_Heel			L_Toe		
		X1	Y1	Z1	X2	Y2	Z2	X3	Y3	Z3	X4	Y4	Z4	X5	Y5	Z5	X6	Y6	Z6	X7	Y7	Z7	X8	Y8	Z8	X9	Y9	Z9	X10	Y10	Z10	X11	Y11	Z11	X12	Y12	Z12	X13	Y13	Z13	X14	Y14	Z14	X15	Y15	Z15	X16	Y16	Z16	X17	Y17	Z17	X18	Y18	Z18	X19	Y19	Z19	X20	Y20	Z20	X21	Y21	Z21	X22	Y22	Z22	X23	Y23	Z23	X24	Y24	Z24	X25	Y25	Z25	X26	Y26	Z26	X27	Y27	Z27
50	0.49000000	-1099.528198	1351.267334	-86.671249	-1128.788208	1358.875732	-480.056824	-1168.570923	1422.850464	-285.545868	-1014.730408	1318.784668	-280.679932	-1025.925049	1049.746826	41.004910	-1236.107178	1034.597412	-537.394653	-811.844879	919.886414	14.222687	-1226.539246	789.408112	-504.737274	-1075.370483	915.052856	-116.193619	-1080.846313	913.899658	-425.360748	-1270.537231	934.434753	-216.905029	-1270.567627	927.711548	-314.892975	-1270.552429	931.073151	-265.899002	-1267.798218	1145.847900	-272.517426	-964.178833	1128.922119	-278.765778	-1203.517578	526.473083	-57.090355	-1234.493652	451.074707	-126.544380	-1304.434204	308.312012	-83.320274	-1419.712524	109.012085	-164.257050	-1472.464966	117.105179	-226.449936	-1303.967896	48.611893	-203.062973	-974.681274	572.975464	-467.253204	-956.474365	451.673431	-413.279694	-944.894348	307.779419	-462.424072	-956.816833	81.241898	-391.170898	-1006.226807	48.585281	-333.562347	-815.215149	64.653152	-367.914307
51	0.50000000	-1089.862671	1352.189453	-88.765289	-1119.938965	1358.984375	-482.200592	-1159.671997	1423.544922	-287.573517	-1005.849182	1319.662598	-282.885925	-1022.024658	1048.495361	38.625610	-1223.336182	1033.103271	-538.995789	-812.430786	911.544739	13.356329	-1211.325134	787.891022	-507.792267	-1065.512695	915.463379	-118.116806	-1072.267334	914.694519	-427.153015	-1261.073242	935.055664	-217.696396	-1261.454346	928.629639	-315.816437	-1261.263794	931.842651	-266.756416	-1258.729980	1146.385254	-273.621185	-954.795349	1130.009277	-281.003510	-1193.743774	526.812134	-57.582424	-1224.508179	451.599213	-126.501099	-1297.520996	310.596130	-82.665421	-1416.377319	113.084114	-163.106964	-1468.723145	122.956642	-225.143188	-1302.908569	48.536304	-202.930740	-967.493713	573.343994	-468.687164	-950.632202	451.264709	-414.567902	-941.269653	307.001984	-463.238251	-955.313416	81.032799	-391.490265	-1005.059204	49.352512	-333.660065	-814.148376	62.312099	-368.377319
52	0.51000000	-1080.238159	1353.213135	-90.866417	-1111.135742	1359.235474	-484.293762	-1150.825317	1424.281738	-289.571960	-996.983643	1320.629028	-285.081024	-1018.258484	1047.417603	36.166176	-1210.405518	1031.742065	-540.640015	-813.676208	903.162323	12.270122	-1195.722839	786.544067	-510.908554	-1055.633545	915.947632	-120.118988	-1063.690308	915.555786	-428.982605	-1251.595093	935.707336	-218.510345	-1252.366699	929.595886	-316.728638	-1251.980896	932.651611	-267.619492	-1249.658447	1146.966675	-274.728455	-945.419495	1131.187866	-283.271759	-1183.355957	527.035339	-58.054333	-1213.670532	451.990021	-126.443756	-1289.772827	312.871307	-82.039703	-1412.474731	117.492302	-161.926926	-1464.291504	129.327972	-223.808746	-1301.762085	48.458515	-202.813431	-961.424561	573.270935	-470.120117	-945.277283	450.730194	-415.774536	-937.952454	306.167908	-463.907318	-953.875305	80.814545	-391.722473	-1003.945374	50.034950	-333.719055	-813.170715	60.023335	-368.742584
53	0.52000000	-1070.700806	1354.310059	-92.952492	-1102.391846	1359.602417	-486.326599	-1142.039795	1425.036621	-291.547211	-988.138916	1321.652588	-287.253052	-1014.623840	1046.494263	33.630028	-1197.344849	1030.509277	-542.341187	-815.555511	894.799438	10.953847	-1179.752747	785.383423	-514.051956	-1045.757080	916.472595	-122.201675	-1055.117065	916.470215	-430.836670	-1242.131226	936.364746	-219.358612	-1243.332642	930.593384	-317.659607	-1242.731934	933.479065	-268.509109	-1240.599121	1147.581055	-275.845642	-936.067932	1132.425415	-285.548981	-1172.250977	527.102417	-58.512665	-1201.910645	452.204742	-126.390366	-1281.092407	315.105988	-81.447914	-1407.933228	122.253586	-160.716110	-1459.084839	136.240051	-222.441055	-1300.515991	48.413914	-202.695526	-956.437073	572.792175	-471.501953	-940.345276	450.097412	-416.859924	-934.837280	305.306396	-464.402191	-952.503052	80.588829	-391.851776	-1002.910522	50.628803	-333.740417	-812.282043	57.832523	-368.973236
54	0.53000000	-1061.281982	1355.447510	-95.000374	-1093.715088	1360.053589	-488.290863	-1133.312866	1425.790405	-293.502197	-979.318359	1322.698120	-289.391296	-1011.120911	1045.697632	31.023977	-1184.176392	1029.395264	-544.112488	-818.037964	886.509552	9.400504	-1163.429871	784.417694	-517.198456	-1035.911255	917.005859	-124.363190	-1046.559692	917.423157	-432.705322	-1232.714600	937.006531	-220.246719	-1234.380005	931.609253	-318.638184	-1233.547302	934.307892	-269.442451	-1231.568237	1148.219849	-276.976868	-926.758850	1133.685059	-287.819031	-1160.325439	526.979248	-58.967537	-1189.180420	452.209900	-126.364235	-1271.399414	317.271942	-80.895432	-1402.685425	127.381905	-159.474808	-1453.024780	143.700134	-221.034958	-1299.138794	48.457050	-202.559052	-952.356445	572.011414	-472.789093	-935.739136	449.406494	-417.791626	-931.825500	304.453003	-464.709900	-951.196838	80.363976	-391.873047	-1001.972107	51.136383	-333.726868	-811.477661	55.799561	-369.054840
55	0.54000000	-1051.995117	1356.588989	-96.987648	-1085.107666	1360.554565	-490.179443	-1124.632935	1426.529419	-295.434479	-970.523743	1323.729614	-291.486511	-1007.751160	1044.994629	28.357182	-1170.916626	1028.387085	-545.965332	-821.088715	878.339630	7.607189	-1146.765259	783.648682	-520.334869	-1026.127075	917.517029	-126.595863	-1038.039185	918.396912	-434.580078	-1223.381104	937.616272	-221.174530	-1225.534424	932.634827	-319.686584	-1224.457764	935.125549	-270.430557	-1222.581543	1148.875610	-278.123810	-917.510925	1134.926025	-290.071838	-1147.484497	526.641052	-59.433041	-1175.457397	451.985504	-126.393478	-1260.634644	319.344940	-80.390923	-1396.669556	132.884949	-158.205933	-1446.044312	151.696304	-219.587357	-1297.572388	48.660820	-202.385712	-948.891846	571.077087	-473.948700	-931.350159	448.701202	-418.548645	-928.846436	303.641876	-464.834839	-949.959961	80.150688	-391.792786	-1001.141724	51.562744	-333.683228	-810.751953	53.985870	-368.994080
